<svg width="640" height="640" viewBox="0 0 680 680" role="img" xmlns="http://www.w3.org/2000/svg">
  <defs>
    <linearGradient id="bg" x1="0" y1="0" x2="1" y2="1">
      <stop offset="0%" stop-color="#0D0523"/>
      <stop offset="55%" stop-color="#2D0A5E"/>
      <stop offset="100%" stop-color="#4C0D80"/>
    </linearGradient>
    <radialGradient id="glow" cx="50%" cy="48%" r="45%">
      <stop offset="0%" stop-color="#9333EA" stop-opacity="0.55"/>
      <stop offset="100%" stop-color="#9333EA" stop-opacity="0"/>
    </radialGradient>
    <linearGradient id="heart" x1="0.2" y1="0" x2="0.8" y2="1">
      <stop offset="0%" stop-color="#F9A8D4"/>
      <stop offset="45%" stop-color="#E879F9"/>
      <stop offset="100%" stop-color="#A855F7"/>
    </linearGradient>
    <linearGradient id="shine" x1="0" y1="0" x2="0" y2="1">
      <stop offset="0%" stop-color="#FFFFFF" stop-opacity="0.55"/>
      <stop offset="100%" stop-color="#FFFFFF" stop-opacity="0"/>
    </linearGradient>
    <radialGradient id="ringGlow" cx="50%" cy="50%" r="50%">
      <stop offset="60%" stop-color="#C084FC" stop-opacity="0"/>
      <stop offset="100%" stop-color="#C084FC" stop-opacity="0.22"/>
    </radialGradient>
  </defs>

  <rect width="680" height="680" rx="136" fill="url(#bg)"/>
  <circle cx="340" cy="326" r="260" fill="url(#glow)"/>
  <circle cx="340" cy="326" r="230" fill="none" stroke="url(#ringGlow)" stroke-width="48"/>
  <circle cx="340" cy="326" r="196" fill="none" stroke="#C084FC" stroke-width="1" opacity="0.18"/>
  <circle cx="340" cy="326" r="230" fill="none" stroke="#C084FC" stroke-width="0.5" opacity="0.1"/>

  <path d="M340 480 C262 420 170 358 170 263 C170 206 210 166 258 166 C296 166 328 190 340 218 C352 190 384 166 422 166 C470 166 510 206 510 263 C510 358 418 420 340 480Z" fill="url(#heart)"/>
  <path d="M340 480 C262 420 170 358 170 263 C170 206 210 166 258 166 C296 166 328 190 340 218 C352 190 384 166 422 166 C470 166 510 206 510 263 C510 358 418 420 340 480Z" fill="url(#shine)"/>
  <path d="M258 166 C230 166 207 180 193 202 C210 185 234 178 258 178 C286 178 310 192 326 214 C330 219 336 218 340 218 C328 190 296 166 258 166Z" fill="white" opacity="0.22"/>
  <path d="M226 218 C232 208 242 201 254 198" fill="none" stroke="white" stroke-width="5" stroke-linecap="round" opacity="0.45"/>

  <g transform="translate(502,172)">
    <path d="M0,-26 L4,-4 L26,0 L4,4 L0,26 L-4,4 L-26,0 L-4,-4 Z" fill="white"/>
    <path d="M0,-14 L2,-2 L14,0 L2,2 L0,14 L-2,2 L-14,0 L-2,-2 Z" fill="#F0ABFC"/>
  </g>
  <g transform="translate(166,452)">
    <path d="M0,-18 L2.8,-2.8 L18,0 L2.8,2.8 L0,18 L-2.8,2.8 L-18,0 L-2.8,-2.8 Z" fill="white" opacity="0.9"/>
  </g>
  <g transform="translate(196,192)">
    <path d="M0,-11 L1.7,-1.7 L11,0 L1.7,1.7 L0,11 L-1.7,1.7 L-11,0 L-1.7,-1.7 Z" fill="white" opacity="0.7"/>
  </g>
  <g transform="translate(522,382)">
    <path d="M0,-8 L1.2,-1.2 L8,0 L1.2,1.2 L0,8 L-1.2,1.2 L-8,0 L-1.2,-1.2 Z" fill="#F0ABFC" opacity="0.85"/>
  </g>

  <circle cx="150" cy="300" r="5" fill="#C084FC" opacity="0.6"/>
  <circle cx="536" cy="280" r="4" fill="#F0ABFC" opacity="0.55"/>
  <circle cx="450" cy="498" r="5.5" fill="white" opacity="0.35"/>
  <circle cx="228" cy="498" r="4" fill="#E879F9" opacity="0.5"/>
  <circle cx="154" cy="380" r="3" fill="white" opacity="0.3"/>
  <circle cx="530" cy="452" r="3" fill="white" opacity="0.25"/>
</svg>
